<svg width="28" height="28" viewBox="0 0 28 28" fill="none" xmlns="http://www.w3.org/2000/svg">
<rect x="0.817627" y="0.199429" width="10.6296" height="27.8006" rx="2" fill="#696969"/>
<rect x="0.5" y="0.699432" width="26.8006" height="26.8006" rx="1.5" stroke="black"/>
<g clip-path="url(#clip0)">
<path d="M6.23944 9.37866C6.26435 9.13368 6.16885 8.8887 5.98616 8.72261L4.11351 6.46382V6.12749H9.9349L14.4359 15.9973L18.3929 6.12749H23.9444V6.46382L22.3417 8.00013C22.2046 8.10394 22.1341 8.27833 22.1631 8.44857V19.7425C22.1341 19.9128 22.2046 20.0872 22.3417 20.191L23.907 21.7273V22.0636H16.0303V21.7273L17.6538 20.1536C17.8116 19.9958 17.8116 19.946 17.8116 19.7052V10.5786L13.2982 22.0346H12.6878L7.43943 10.5786V18.2561C7.39375 18.5799 7.50171 18.9038 7.73008 19.1363L9.8394 21.6941V22.0304H3.86023V21.6982L5.96955 19.1363C6.19377 18.9038 6.29757 18.5758 6.23944 18.2561V9.37866Z" fill="#222222"/>
</g>
<defs>
<clipPath id="clip0">
<rect width="21.2593" height="21.2593" fill="white" transform="translate(3.27063 3.47009)"/>
</clipPath>
</defs>
</svg>
